<svg width="142" height="25" viewBox="0 0 142 25" fill="none" xmlns="http://www.w3.org/2000/svg">
<path fill-rule="evenodd" clip-rule="evenodd" d="M13.9284 18.9542V16.0837C13.9284 11.3364 13.9284 10.7843 14.7396 10.7291V10.4807C14.292 10.4807 13.6766 10.5083 12.9773 10.5083C12.2501 10.5083 11.6347 10.4807 11.1591 10.4807V10.7291C11.9983 10.7843 11.9983 11.364 11.9983 15.8353V16.8014H3.74659V15.8353C3.74659 11.3364 3.74659 10.7567 4.58574 10.7015V10.4531C4.13819 10.4531 3.52281 10.4807 2.76757 10.4807C2.06827 10.4807 1.31303 10.4531 0.921422 10.4531V10.7015C1.78855 10.7567 1.78855 11.3364 1.78855 16.0561V18.9266C1.78855 24.0052 1.78855 24.5573 0.865479 24.6125V24.8885C1.28506 24.8885 2.0403 24.8885 2.76757 24.8885C3.49484 24.8885 4.11022 24.9161 4.64169 24.9161V24.6677C3.71862 24.6125 3.71862 24.0328 3.71862 19.3407V18.2918H11.9703V19.3407C11.9703 24.0328 11.9703 24.6125 11.0193 24.6677V24.8885C11.6067 24.8885 12.278 24.8609 13.0333 24.8609C13.7605 24.8609 14.3759 24.8885 14.8794 24.8885V24.6401C13.9284 24.6125 13.9284 24.0328 13.9284 18.9542Z" fill="black"/>
<path fill-rule="evenodd" clip-rule="evenodd" d="M34.152 23.1221C33.9562 22.9841 34.0961 22.2941 34.0961 21.9629C34.124 21.1624 36.8373 13.8482 37.145 11.9713C37.3128 10.95 37.2289 10.2324 36.5576 10.2324C35.8303 10.2324 34.3478 11.1709 33.4807 11.9989C32.7814 12.6613 32.8373 12.6613 31.6345 13.8758L32.138 14.4278C33.0611 13.5169 34.5716 12.0541 34.8793 12.2197C35.2149 12.4129 34.18 15.3662 33.3688 18.0711C32.8933 19.6996 31.9982 23.2325 31.9982 23.2325C31.9702 24.309 32.138 24.7782 32.9772 24.8886C34.124 25.0266 34.9632 23.7845 37.7324 21.2176L37.0051 20.776C35.9981 22.0733 34.3478 23.2601 34.152 23.1221Z" fill="#D7A84E"/>
<path fill-rule="evenodd" clip-rule="evenodd" d="M64.0541 21.3279L60.194 17.3534L63.8863 13.5168C65.9562 11.3915 66.4318 10.7843 67.1031 10.7291V10.4807C66.5996 10.5083 65.9842 10.5083 65.3409 10.5083C64.7255 10.5083 64.194 10.5083 63.4667 10.4807V10.7015C64.1381 10.7843 63.8304 11.2811 61.7884 13.3788L58.4038 17.0222H58.3758V15.7801C58.3758 11.4744 58.4038 10.8671 59.215 10.7291V10.4807C58.6556 10.4807 58.1241 10.5083 57.3968 10.5083C56.6136 10.5083 56.0262 10.4807 55.5507 10.4807V10.7291C56.4178 10.8671 56.4178 11.4744 56.4178 16.0837V18.9542C56.4178 24.0328 56.4178 24.502 55.5227 24.64V24.8885C55.9703 24.8885 56.6975 24.8609 57.4528 24.8609C58.1521 24.8609 58.6835 24.8885 59.2709 24.8885V24.64C58.3479 24.502 58.3479 24.0328 58.3479 19.313V17.933H58.3758L61.6765 21.4107C64.0821 23.9776 64.6695 24.5848 63.8583 24.6676V24.8885C64.5856 24.8609 65.201 24.8609 65.9283 24.8609C66.6835 24.8609 67.3269 24.8609 67.8304 24.8885V24.64C67.215 24.5572 66.6835 24.0604 64.0541 21.3279Z" fill="black"/>
<path fill-rule="evenodd" clip-rule="evenodd" d="M93.1168 18.9544L89.2567 10.2324H88.949L84.949 18.9268C82.5434 24.0605 82.2637 24.6126 81.6204 24.6678V24.8886C81.984 24.8886 82.5434 24.8886 83.3266 24.8886C83.97 24.8886 84.6134 24.8886 85.1448 24.9162V24.6678C84.2777 24.6126 84.5015 24.0605 86.0119 20.8036H91.8581C93.2846 24.0605 93.5364 24.6126 92.6693 24.6678V24.8886C93.2007 24.861 93.928 24.861 94.6553 24.861C95.4385 24.861 95.97 24.861 96.3336 24.8886V24.6402C95.6623 24.6126 95.3825 24.0329 93.1168 18.9544ZM91.2427 19.396H86.5994L86.6273 19.3408C88.5574 14.897 88.7812 14.3726 88.977 13.8758H89.0049C89.1728 14.4002 89.3686 14.897 91.2427 19.3408V19.396Z" fill="black"/>
<path fill-rule="evenodd" clip-rule="evenodd" d="M120.697 23.3428C117.648 19.6995 117.173 19.1475 116.725 18.5678V18.5402C117.201 18.4022 117.732 18.1814 118.208 17.8778C119.075 17.3258 120.138 16.2217 120.138 14.4553C120.138 12.33 118.683 11.226 117.453 10.8395C116.641 10.5635 115.634 10.4531 114.572 10.4531C114.04 10.4531 113.173 10.4807 112.613 10.5083C111.97 10.5083 111.523 10.5359 110.963 10.5359V10.7567C111.83 10.7843 111.83 11.364 111.83 16.1113V18.9818C111.83 24.0604 111.83 24.6125 110.963 24.6677V24.8885C111.495 24.8885 112.054 24.8609 112.781 24.8609C113.453 24.8609 114.04 24.8885 114.516 24.8885V24.6401C113.704 24.5849 113.704 24.0052 113.704 19.5891V18.8162H114.739C116.641 21.1623 118.04 22.9564 119.327 24.6125C119.523 24.7781 119.802 24.8609 120.082 24.8609C120.446 24.8609 120.641 24.8333 121.005 24.8333C121.537 24.8333 121.956 24.8609 122.404 24.8609V24.6125C121.928 24.6125 121.257 24.0052 120.697 23.3428ZM114.516 17.4914C114.18 17.4914 113.928 17.4914 113.704 17.4638V11.916C113.9 11.8884 114.404 11.8884 114.795 11.8884C116.893 11.8884 118.124 12.9096 118.124 14.5381V14.5657C118.124 15.8905 117.341 16.6634 116.53 17.0774C115.998 17.3258 115.271 17.4914 114.516 17.4914Z" fill="black"/>
<path fill-rule="evenodd" clip-rule="evenodd" d="M140.138 18.9542V16.0837C140.138 11.3363 140.138 10.8119 140.977 10.7291V10.4807C140.529 10.4807 139.83 10.5083 139.159 10.5083C138.403 10.5083 137.788 10.4807 137.34 10.4807V10.7291C138.208 10.8119 138.208 11.3363 138.208 16.0837V18.9818C138.208 24.0328 138.208 24.5572 137.312 24.6676V24.8885C137.76 24.8885 138.375 24.8609 139.187 24.8609C139.914 24.8609 140.585 24.8885 141.089 24.8885V24.64C140.138 24.5572 140.138 24.0328 140.138 18.9542Z" fill="black"/>
<path fill-rule="evenodd" clip-rule="evenodd" d="M38.264 0.381104C36.2651 0.381104 34.6243 1.99475 34.6243 3.97631C34.6243 5.95787 36.2651 7.57151 38.264 7.57151C40.2629 7.57151 41.9037 5.95787 41.9037 3.97631C41.9037 1.99475 40.2629 0.381104 38.264 0.381104ZM38.264 6.34293C36.9342 6.34293 35.8618 5.27927 35.8618 3.97631C35.8618 2.67334 36.9342 1.60969 38.264 1.60969C39.5937 1.60969 40.6662 2.67334 40.6662 3.97631C40.6662 5.27927 39.5937 6.34293 38.264 6.34293ZM38.264 0.664183C36.4178 0.664183 34.9073 2.15464 34.9073 3.97631C34.9073 4.49045 35.0277 4.97821 35.2419 5.41352C35.0277 4.97823 34.9074 4.4905 34.9074 3.97639C34.9074 2.15473 36.4179 0.664269 38.264 0.664269C39.5891 0.664269 40.7413 1.43213 41.2861 2.53919C40.7413 1.43208 39.5891 0.664183 38.264 0.664183ZM35.8489 5.13572C36.2849 6.01794 37.2028 6.62609 38.264 6.62609C39.7465 6.62609 40.9493 5.43925 40.9493 3.97639C40.9493 3.56066 40.8522 3.16722 40.6791 2.81698C40.8522 3.1672 40.9493 3.56061 40.9493 3.97631C40.9493 5.43916 39.7465 6.62601 38.264 6.62601C37.2028 6.62601 36.2849 6.01789 35.8489 5.13572Z" fill="#D7A84E"/>
</svg>
