<svg width="22" height="22" viewBox="0 0 22 22" fill="none" xmlns="http://www.w3.org/2000/svg">
<g clip-path="url(#clip0)">
<path d="M13.1055 10.9053C13.1055 12.0127 12.1628 12.9105 11 12.9105C9.83716 12.9105 8.89453 12.0127 8.89453 10.9053C8.89453 9.79779 9.83716 8.90005 11 8.90005C12.1628 8.90005 13.1055 9.79779 13.1055 10.9053Z" fill="#D7A84E"/>
<path d="M15.9239 7.35747C15.8227 7.09627 15.6613 6.85985 15.4515 6.66579C15.2477 6.46597 14.9996 6.31219 14.7252 6.2158C14.5026 6.13347 14.1683 6.03548 13.5524 6.00879C12.8863 5.97985 12.6865 5.97362 11 5.97362C9.31331 5.97362 9.11357 5.97969 8.44756 6.00863C7.83173 6.03548 7.49721 6.13347 7.27481 6.2158C7.00038 6.31219 6.75214 6.46597 6.54854 6.66579C6.33873 6.85985 6.17726 7.09611 6.07588 7.35747C5.98944 7.56944 5.88655 7.88803 5.85852 8.47453C5.82814 9.10883 5.82159 9.29906 5.82159 10.9054C5.82159 12.5116 5.82814 12.7019 5.85852 13.3363C5.88655 13.9228 5.98944 14.2413 6.07588 14.4532C6.17726 14.7146 6.33856 14.9509 6.54837 15.1449C6.75214 15.3447 7.00021 15.4985 7.27464 15.5949C7.49721 15.6774 7.83173 15.7754 8.44756 15.8021C9.11357 15.831 9.31314 15.8371 10.9998 15.8371C12.6867 15.8371 12.8864 15.831 13.5523 15.8021C14.1681 15.7754 14.5026 15.6774 14.7252 15.5949C15.2761 15.3925 15.7115 14.9779 15.9239 14.4532C16.0104 14.2413 16.1133 13.9228 16.1415 13.3363C16.1719 12.7019 16.1782 12.5116 16.1782 10.9054C16.1782 9.29906 16.1719 9.10883 16.1415 8.47453C16.1134 7.88803 16.0106 7.56944 15.9239 7.35747ZM11 13.9943C9.20857 13.9943 7.75636 12.6114 7.75636 10.9053C7.75636 9.19915 9.20857 7.81625 11 7.81625C12.7913 7.81625 14.2435 9.19915 14.2435 10.9053C14.2435 12.6114 12.7913 13.9943 11 13.9943ZM14.3717 8.41603C13.9531 8.41603 13.6137 8.0928 13.6137 7.69413C13.6137 7.29545 13.9531 6.97223 14.3717 6.97223C14.7903 6.97223 15.1297 7.29545 15.1297 7.69413C15.1295 8.0928 14.7903 8.41603 14.3717 8.41603Z" fill="#D7A84E"/>
<path d="M11 0.429077C4.9258 0.429077 0 5.12031 0 10.9053C0 16.6902 4.9258 21.3815 11 21.3815C17.0742 21.3815 22 16.6902 22 10.9053C22 5.12031 17.0742 0.429077 11 0.429077ZM17.2783 13.3854C17.2478 14.0258 17.1408 14.463 16.9847 14.8457C16.6566 15.6537 15.9859 16.2925 15.1374 16.605C14.7358 16.7537 14.2765 16.8554 13.6043 16.8846C12.9307 16.9139 12.7156 16.9209 11.0002 16.9209C9.28461 16.9209 9.0696 16.9139 8.39586 16.8846C7.72363 16.8554 7.2644 16.7537 6.86275 16.605C6.44112 16.454 6.05943 16.2172 5.74388 15.9111C5.42262 15.6107 5.17404 15.2471 5.01543 14.8457C4.85933 14.4631 4.75241 14.0258 4.72186 13.3856C4.69081 12.7439 4.68359 12.539 4.68359 10.9053C4.68359 9.27156 4.69081 9.06663 4.72169 8.42513C4.75224 7.78476 4.85899 7.34756 5.01509 6.96487C5.17371 6.56347 5.42245 6.19981 5.74388 5.89944C6.05927 5.59332 6.44112 5.35658 6.86258 5.20551C7.2644 5.05685 7.72346 4.95518 8.39586 4.92593C9.06943 4.89668 9.28461 4.88964 11 4.88964C12.7154 4.88964 12.9306 4.89668 13.6041 4.92609C14.2765 4.95518 14.7356 5.05685 15.1374 5.20535C15.5589 5.35642 15.9407 5.59332 16.2563 5.89944C16.5775 6.19997 16.8263 6.56347 16.9847 6.96487C17.141 7.34756 17.2478 7.78476 17.2785 8.42513C17.3092 9.06663 17.3164 9.27156 17.3164 10.9053C17.3164 12.539 17.3092 12.7439 17.2783 13.3854Z" fill="#D7A84E"/>
</g>
<defs>
<clipPath id="clip0">
<rect y="0.429077" width="22" height="20.9524" fill="white"/>
</clipPath>
</defs>
</svg>
