<svg width="23" height="22" viewBox="0 0 23 22" fill="none" xmlns="http://www.w3.org/2000/svg">
<g clip-path="url(#clip0)">
<path d="M13.9171 10.93C13.9171 12.0375 12.9745 12.9352 11.8116 12.9352C10.6488 12.9352 9.70618 12.0375 9.70618 10.93C9.70618 9.82254 10.6488 8.9248 11.8116 8.9248C12.9745 8.9248 13.9171 9.82254 13.9171 10.93Z" fill="#D7A84E"/>
<path d="M16.7355 7.3819C16.6343 7.1207 16.4729 6.88428 16.263 6.69021C16.0593 6.4904 15.8112 6.33662 15.5368 6.24023C15.3142 6.1579 14.9799 6.05991 14.364 6.03321C13.6978 6.00428 13.4981 5.99805 11.8116 5.99805C10.1249 5.99805 9.92516 6.00412 9.25914 6.03305C8.64331 6.05991 8.30879 6.1579 8.0864 6.24023C7.81197 6.33662 7.56372 6.4904 7.36012 6.69021C7.15031 6.88428 6.98885 7.12054 6.88747 7.3819C6.80103 7.59387 6.69814 7.91246 6.6701 8.49896C6.63972 9.13326 6.63318 9.32349 6.63318 10.9299C6.63318 12.5361 6.63972 12.7263 6.6701 13.3608C6.69814 13.9473 6.80103 14.2657 6.88747 14.4777C6.98885 14.739 7.15015 14.9753 7.35995 15.1693C7.56372 15.3692 7.8118 15.5229 8.08623 15.6193C8.30879 15.7018 8.64331 15.7998 9.25914 15.8265C9.92516 15.8554 10.1247 15.8615 11.8114 15.8615C13.4983 15.8615 13.698 15.8554 14.3639 15.8265C14.9797 15.7998 15.3142 15.7018 15.5368 15.6193C16.0876 15.417 16.523 15.0023 16.7355 14.4777C16.822 14.2657 16.9249 13.9473 16.9531 13.3608C16.9834 12.7263 16.9898 12.5361 16.9898 10.9299C16.9898 9.32349 16.9834 9.13326 16.9531 8.49896C16.925 7.91246 16.8221 7.59387 16.7355 7.3819ZM11.8116 14.0187C10.0202 14.0187 8.56795 12.6358 8.56795 10.9297C8.56795 9.22358 10.0202 7.84068 11.8116 7.84068C13.6028 7.84068 15.0551 9.22358 15.0551 10.9297C15.0551 12.6358 13.6028 14.0187 11.8116 14.0187ZM15.1833 8.44046C14.7647 8.44046 14.4253 8.11723 14.4253 7.71856C14.4253 7.31988 14.7647 6.99665 15.1833 6.99665C15.6019 6.99665 15.9413 7.31988 15.9413 7.71856C15.9411 8.11723 15.6019 8.44046 15.1833 8.44046Z" fill="#D7A84E"/>
<path d="M11.8116 0.453613C5.73744 0.453613 0.811646 5.14485 0.811646 10.9298C0.811646 16.7148 5.73744 21.406 11.8116 21.406C17.8858 21.406 22.8116 16.7148 22.8116 10.9298C22.8116 5.14485 17.8858 0.453613 11.8116 0.453613ZM18.09 13.4099C18.0594 14.0503 17.9525 14.4875 17.7964 14.8702C17.4682 15.6783 16.7975 16.317 15.9491 16.6296C15.5474 16.7782 15.0882 16.8799 14.416 16.9091C13.7424 16.9384 13.5272 16.9454 11.8118 16.9454C10.0963 16.9454 9.88124 16.9384 9.2075 16.9091C8.53528 16.8799 8.07605 16.7782 7.67439 16.6296C7.25276 16.4785 6.87108 16.2418 6.55553 15.9356C6.23427 15.6353 5.98569 15.2716 5.82707 14.8702C5.67097 14.4877 5.56406 14.0503 5.53351 13.4101C5.50246 12.7684 5.49524 12.5635 5.49524 10.9298C5.49524 9.2961 5.50246 9.09116 5.53334 8.44967C5.56389 7.80929 5.67064 7.37209 5.82674 6.9894C5.98535 6.58801 6.2341 6.22434 6.55553 5.92398C6.87091 5.61786 7.25276 5.38111 7.67422 5.23005C8.07605 5.08139 8.53511 4.97972 9.2075 4.95047C9.88107 4.92121 10.0963 4.91418 11.8116 4.91418C13.527 4.91418 13.7422 4.92121 14.4158 4.95063C15.0882 4.97972 15.5472 5.08139 15.9491 5.22989C16.3705 5.38095 16.7524 5.61786 17.0679 5.92398C17.3892 6.2245 17.6379 6.58801 17.7964 6.9894C17.9527 7.37209 18.0594 7.80929 18.0901 8.44967C18.1208 9.09116 18.1281 9.2961 18.1281 10.9298C18.1281 12.5635 18.1208 12.7684 18.09 13.4099Z" fill="#D7A84E"/>
</g>
<defs>
<clipPath id="clip0">
<rect x="0.811646" y="0.453613" width="22" height="20.9524" fill="white"/>
</clipPath>
</defs>
</svg>
