<svg width="20" height="20" viewBox="0 0 20 20" fill="none" xmlns="http://www.w3.org/2000/svg">
<g clip-path="url(#clip0)">
<path d="M10 0.679688C6.00606 0.679688 2.75676 3.76652 2.75676 7.56073C2.75676 12.2695 9.23875 19.1822 9.51473 19.4741C9.77395 19.7484 10.2265 19.7479 10.4853 19.4741C10.7613 19.1822 17.2432 12.2695 17.2432 7.56073C17.2432 3.76652 13.9939 0.679688 10 0.679688ZM10 11.0228C7.99055 11.0228 6.35578 9.46971 6.35578 7.56073C6.35578 5.65175 7.99059 4.09872 10 4.09872C12.0094 4.09872 13.6442 5.65179 13.6442 7.56077C13.6442 9.46975 12.0094 11.0228 10 11.0228Z" fill="#E7C074"/>
</g>
<defs>
<clipPath id="clip0">
<rect y="0.679688" width="20" height="19" fill="white"/>
</clipPath>
</defs>
</svg>
