<svg width="184" height="37" viewBox="0 0 184 37" fill="none" xmlns="http://www.w3.org/2000/svg">
<path d="M14.6084 26.7572H15.1084V26.2572V24.9896V24.8985C15.1084 22.0452 15.1084 20.3624 14.9654 19.3934C14.9142 19.0462 14.8386 18.7375 14.7058 18.4844C15.0684 18.4924 15.4659 18.4995 15.8931 18.4995C16.2989 18.4995 16.6828 18.4925 17.0335 18.4847C16.902 18.7439 16.8285 19.0629 16.7787 19.4255C16.641 20.4283 16.641 22.1905 16.641 25.2277V25.3155V29.0822V29.1798C16.641 32.4257 16.641 34.308 16.8027 35.3731C16.8597 35.7488 16.9434 36.0794 17.0896 36.3465C16.7425 36.3392 16.3676 36.3328 15.9665 36.3328C15.4974 36.3328 15.0534 36.3409 14.6373 36.3493C14.7732 36.0965 14.8539 35.7901 14.9094 35.4455C15.0717 34.437 15.0717 32.6794 15.0717 29.6891V29.5893V28.213V27.713H14.5717H3.74387H3.24387V28.213V29.5893L3.24387 29.6865C3.24385 32.6791 3.24384 34.4358 3.40127 35.4432C3.45777 35.8048 3.54117 36.1242 3.68611 36.3841C3.31825 36.3762 2.92181 36.3691 2.49591 36.3691H2.49032H2.48473H2.47913H2.47354H2.46794H2.46235H2.45675H2.45115H2.44555H2.43995H2.43436H2.42876H2.42316H2.41755H2.41195H2.40635H2.40075H2.39514H2.38954H2.38394H2.37833H2.37273H2.36712H2.36152H2.35591H2.3503H2.3447H2.33909H2.33348H2.32788H2.32227H2.31666H2.31105H2.30545H2.29984H2.29423H2.28862H2.28301H2.27741H2.2718H2.26619H2.26058H2.25497H2.24936H2.24376H2.23815H2.23254H2.22693H2.22133H2.21572H2.21011H2.20451H2.1989H2.19329H2.18769H2.18208H2.17648H2.17087H2.16527H2.15966H2.15406H2.14846H2.14285H2.13725H2.13165H2.12605H2.12045H2.11485H2.10925H2.10365H2.09805H2.09246H2.08686H2.08126H2.07567H2.07007H2.06448H2.05889H2.0533H2.04771H2.04212H2.03653H2.03094H2.02535H2.01976H2.01418H2.00859H2.00301H1.99743H1.99185H1.98627H1.98069H1.97511H1.96953H1.96396H1.95838H1.95281H1.94723H1.94166H1.93609H1.93053H1.92496H1.91939H1.91383H1.90827H1.9027H1.89714H1.89158H1.88603H1.88047H1.87492H1.86936H1.86381H1.85826H1.85272H1.84717H1.84162H1.83608H1.83054H1.825H1.81946H1.81393H1.80839H1.80286H1.79733H1.7918H1.78627H1.78074H1.77522H1.7697H1.76418H1.75866H1.75315H1.74763H1.74212H1.73661H1.7311H1.7256H1.72009H1.71459H1.70909H1.7036H1.6981H1.69261H1.68712H1.68163H1.67614H1.67066H1.66518H1.6597H1.65422H1.64875H1.64328H1.63781H1.63234H1.62688H1.62142H1.61596H1.6105H1.60505H1.59959H1.59414H1.5887H1.58325H1.57781H1.57237H1.56694H1.5615H1.55607H1.55065H1.54522H1.5398H1.53438H1.52896H1.52355H1.51814H1.51273H1.50733H1.50193H1.49653H1.49113H1.48574H1.48035H1.47496H1.46958H1.4642H1.45882H1.45345H1.44807H1.44271H1.43734H1.43198H1.42662H1.42127H1.41592H1.41057H1.40522H1.39988H1.39454H1.38921H1.38388H1.37855H1.37322H1.3679H1.36258H1.35727H1.35196H1.34665H1.34135H1.33605H1.33075H1.32546H1.32017H1.31489H1.30961H1.30433H1.29906H1.29379H1.28852H1.28326H1.278H1.27275H1.26749H1.26225H1.25701H1.25177H1.24653H1.2413H1.23607H1.23139C1.40109 36.0902 1.49341 35.7341 1.55446 35.3215C1.71127 34.2618 1.71127 32.3892 1.71125 29.1418L1.71125 29.046V25.2793L1.71125 25.1875C1.71127 22.1719 1.71127 20.4081 1.56377 19.3986C1.51029 19.0326 1.43126 18.7103 1.29161 18.4486C1.67442 18.4564 2.09168 18.4633 2.49591 18.4633C2.92838 18.4633 3.32578 18.4565 3.68354 18.4488C3.55044 18.7028 3.4748 19.0129 3.42352 19.362C3.28054 20.3354 3.28055 22.0271 3.28057 24.8987L3.28057 24.9896V26.2572V26.7572H3.78057H14.6084Z" fill="black" stroke="white"/>
<path d="M43.1053 33.0125L43.105 33.0212V33.03C43.105 33.1124 43.096 33.2276 43.0823 33.3814C43.0811 33.3954 43.0798 33.4097 43.0785 33.4242C43.0665 33.5591 43.0527 33.714 43.0459 33.8629C43.0386 34.0244 43.0377 34.2092 43.065 34.3779C43.088 34.5202 43.151 34.7911 43.3904 34.9598C43.5405 35.0656 43.6986 35.0691 43.7792 35.0641C43.8689 35.0586 43.9512 35.0367 44.0159 35.0153C44.1471 34.9719 44.2904 34.9014 44.4324 34.8209C44.7214 34.6573 45.0789 34.4103 45.4598 34.1115C45.549 34.0415 45.6401 33.9682 45.7326 33.8918C45.732 33.8925 45.7314 33.8931 45.7307 33.8937C45.0896 34.5207 44.575 35.0238 44.1285 35.4159C43.2231 36.211 42.7193 36.4346 42.1993 36.373C41.7432 36.3125 41.5924 36.1771 41.5079 36.0204C41.3926 35.8069 41.3366 35.4381 41.3507 34.7642L41.3884 34.616C41.4217 34.4852 41.47 34.296 41.5298 34.0623C41.6496 33.5948 41.8157 32.9492 42.0013 32.237C42.3729 30.8112 42.8205 29.1257 43.1302 28.0651C43.3632 27.288 43.6142 26.4833 43.8576 25.7028C44.1623 24.726 44.4551 23.787 44.6864 22.9871C44.8957 22.263 45.0637 21.6229 45.1506 21.1414C45.1935 20.904 45.2216 20.679 45.2176 20.4915C45.2156 20.3987 45.2055 20.2881 45.1704 20.18C45.1363 20.0745 45.0588 19.9134 44.8822 19.8117L44.876 19.8081L44.8697 19.8048C44.6189 19.6698 44.3608 19.7454 44.2437 19.7873C44.0963 19.84 43.9442 19.925 43.8004 20.0174C43.5087 20.2049 43.164 20.4802 42.8103 20.7856C42.361 21.1735 41.8729 21.6313 41.4217 22.0663C41.7322 21.7473 41.9428 21.526 42.1157 21.3443C42.449 20.9941 42.6425 20.7909 43.1414 20.3183L43.1414 20.3183L43.1428 20.3169C43.682 19.802 44.422 19.245 45.1402 18.8189C45.4986 18.6063 45.8426 18.4317 46.1457 18.3116C46.4577 18.1881 46.6893 18.1374 46.835 18.1374C46.9621 18.1374 47.0135 18.1691 47.0375 18.1892C47.0671 18.2139 47.1138 18.2714 47.151 18.4075C47.2308 18.6995 47.2209 19.1781 47.1125 19.838L47.1124 19.8382C47.018 20.4143 46.7307 21.4433 46.3379 22.711C45.9486 23.9678 45.4661 25.4266 44.9934 26.8463C44.9261 27.0485 44.8589 27.2499 44.7923 27.4498C44.3919 28.6511 44.0095 29.7985 43.7124 30.7331C43.5391 31.278 43.3932 31.7559 43.289 32.1329C43.1913 32.4862 43.1124 32.811 43.1053 33.0125ZM47.5533 32.1371C47.5046 32.1829 47.4564 32.2283 47.4087 32.2734C47.4515 32.2246 47.4937 32.1756 47.5355 32.1263L47.5533 32.1371Z" fill="#D7A84E" stroke="white"/>
<path d="M86.053 36.0485C86.1717 36.1535 86.2836 36.2486 86.3901 36.3346C86.0739 36.3329 85.7391 36.3329 85.3884 36.3329H85.3748H85.371C84.7515 36.3329 84.1897 36.3329 83.6072 36.3429C83.6199 36.161 83.5667 35.9945 83.5109 35.867C83.4421 35.7098 83.339 35.5445 83.2165 35.3736C82.7607 34.7376 81.8194 33.7334 80.3836 32.2017C80.3105 32.1237 80.2362 32.0444 80.1606 31.9637L80.1606 31.9637L80.1584 31.9614L75.8273 27.398L75.6794 27.2422H75.4646H75.4279H74.9279V27.7422V29.5531L74.9279 29.6546C74.9279 32.6612 74.9278 34.3913 75.0855 35.3813C75.1457 35.7589 75.2358 36.0854 75.394 36.3483C75.0432 36.3403 74.671 36.3329 74.2533 36.3329C73.793 36.3329 73.3414 36.3406 72.9328 36.3489C73.0942 36.0728 73.1838 35.7248 73.2432 35.3158C73.3953 34.2702 73.3953 32.4252 73.3953 29.1778L73.3953 29.0822V25.3156L73.3953 25.2273C73.3953 22.2811 73.3953 20.5441 73.2478 19.5302C73.1878 19.1173 73.0966 18.7646 72.9324 18.4841C73.3011 18.4922 73.7142 18.4996 74.1799 18.4996C74.6462 18.4996 75.0515 18.491 75.4259 18.4823C75.2706 18.7514 75.1815 19.0866 75.1218 19.4767C74.9722 20.4526 74.9646 22.1146 74.9646 24.9172V26.547V27.047H75.4646H75.5013H75.7193L75.8676 26.8873L80.3049 22.1108C81.6293 20.7501 82.4428 19.8586 82.8027 19.2834C82.8957 19.1347 82.9745 18.9827 83.0203 18.8311C83.0501 18.7324 83.0715 18.6148 83.062 18.4896C83.598 18.4996 84.0786 18.4996 84.602 18.4996H84.604H84.6147C84.8861 18.4996 85.1556 18.4996 85.419 18.4983C85.3336 18.5706 85.2462 18.6484 85.1557 18.7316C84.7218 19.1305 84.1718 19.7007 83.4191 20.4809C83.0977 20.8141 82.7393 21.1856 82.3372 21.5984L82.3351 21.6006L77.4901 26.6349L77.1549 26.9832L77.4917 27.3299L82.5553 32.5437C82.5556 32.5439 82.5559 32.5442 82.5561 32.5445C84.2753 34.3311 85.328 35.4074 86.053 36.0485Z" fill="black" stroke="white"/>
<path d="M120.594 29.2846L120.595 29.2859C122.076 32.6057 122.923 34.4892 123.51 35.5418C123.689 35.8614 123.853 36.1238 124.016 36.3343C123.742 36.3328 123.437 36.3328 123.1 36.3328H123.07H123.059C122.56 36.3328 122.057 36.3328 121.588 36.3382C121.655 36.0663 121.611 35.7691 121.547 35.5025C121.366 34.75 120.821 33.5073 119.954 31.5284C119.923 31.456 119.891 31.3826 119.858 31.3082L119.727 31.0088H119.4H111.729H111.409L111.275 31.2984C110.297 33.4082 109.698 34.7155 109.504 35.4996C109.435 35.7794 109.39 36.0917 109.472 36.3738C109.062 36.3691 108.636 36.3691 108.215 36.3691H108.205H108.199H108.193H108.187H108.181H108.175H108.169H108.163H108.157H108.151H108.145H108.139H108.133H108.127H108.121H108.115H108.11H108.104H108.098H108.092H108.086H108.08H108.074H108.068H108.062H108.057H108.051H108.045H108.039H108.033H108.027H108.022H108.016H108.01H108.004H107.998H107.993H107.987H107.981H107.975H107.97H107.964H107.958H107.952H107.947H107.941H107.935H107.929H107.924H107.918H107.912H107.907H107.901H107.895H107.89H107.884H107.878H107.873H107.867H107.861H107.856H107.85H107.845H107.839H107.833H107.828H107.822H107.817H107.811H107.805H107.8H107.794H107.789H107.783H107.778H107.772H107.767H107.761H107.756H107.75H107.745H107.739H107.734H107.728H107.723H107.717H107.712H107.706H107.701H107.696H107.69H107.685H107.679H107.674H107.668H107.663H107.658H107.652H107.647H107.642H107.636H107.631H107.626H107.62H107.615H107.61H107.604H107.599H107.594H107.588H107.583H107.578H107.572H107.567H107.562H107.557H107.551H107.546H107.541H107.536H107.53H107.525H107.52H107.515H107.51H107.504H107.499H107.494H107.489H107.484H107.478H107.473H107.468H107.463H107.458H107.453H107.448H107.442H107.437H107.432H107.427H107.422H107.417H107.412H107.407H107.402H107.397H107.392H107.387H107.382H107.376H107.371H107.366H107.361H107.356H107.351H107.346H107.341H107.336H107.331H107.326H107.322H107.317H107.312H107.307H107.302H107.297H107.292H107.287H107.282H107.277H107.272H107.267H107.262H107.258H107.253H107.248H107.243H107.238H107.233H107.228H107.224H107.219H107.214H107.209H107.204H107.2H107.195H107.19H107.19C107.356 36.1569 107.528 35.89 107.717 35.5604C108.322 34.5054 109.214 32.6152 110.787 29.2581L110.787 29.2582L110.788 29.255L115.78 18.4056L120.594 29.2846ZM118.592 30.1617H119.092V29.6617V29.5893V29.4881L119.053 29.395C116.588 23.5497 116.344 22.9264 116.132 22.2657L116.021 21.9181H115.656H115.619H115.279L115.154 22.2348C114.902 22.8758 114.613 23.552 112.084 29.3765L112.054 29.4357L111.686 30.1617H112.5H118.592Z" fill="black" stroke="white"/>
<path d="M156.859 35.1617L156.86 35.1635C157.206 35.5721 157.591 35.9764 157.979 36.2992C157.871 36.2976 157.761 36.2966 157.646 36.2966C157.395 36.2966 157.202 36.3062 157.018 36.3152L157.016 36.3153C156.833 36.3244 156.66 36.3328 156.435 36.3328C156.177 36.3328 155.95 36.2607 155.802 36.1527C154.123 33.9919 152.294 31.6464 149.813 28.5862L149.663 28.4011H149.424H148.066H147.566V28.9011V29.9152L147.566 30.0041C147.566 32.8231 147.566 34.4872 147.704 35.4464C147.754 35.7902 147.827 36.0963 147.956 36.3477C147.615 36.3399 147.246 36.3328 146.855 36.3328C146.432 36.3328 146.052 36.3399 145.702 36.3477C145.834 36.0838 145.909 35.7597 145.96 35.3896C146.107 34.332 146.107 32.4611 146.107 29.209L146.107 29.1184V25.3518L146.107 25.2593C146.107 22.2261 146.107 20.4533 145.96 19.4439C145.907 19.0875 145.831 18.7709 145.696 18.513C145.986 18.5057 146.289 18.4995 146.635 18.4995H146.647L146.659 18.4989C147.389 18.4629 148.518 18.4271 149.204 18.4271C150.572 18.4271 151.832 18.5701 152.824 18.9075L152.824 18.9076L152.835 18.9112C154.314 19.3755 156.008 20.6758 156.008 23.1787C156.008 25.2679 154.757 26.5793 153.707 27.2479L153.707 27.2483C153.129 27.6168 152.477 27.8886 151.891 28.0587L151.53 28.1634V28.5389V28.5752V28.7457L151.635 28.8807C152.08 29.4578 152.548 30.0166 154.431 32.2626C155.063 33.017 155.855 33.9619 156.859 35.1617ZM147.566 27.1264V27.5686L148.005 27.6227C148.329 27.6627 148.686 27.6627 149.106 27.6627H149.131C150.188 27.6627 151.215 27.4322 151.985 27.0723L151.993 27.0687L152.001 27.0647C153.175 26.4652 154.366 25.3064 154.366 23.3236V23.2873C154.366 22.0815 153.904 21.0635 153.028 20.3581C152.164 19.6632 150.949 19.3104 149.498 19.3104C149.483 19.3104 149.467 19.3104 149.451 19.3104C148.965 19.3104 148.289 19.3103 147.996 19.3515L147.566 19.4122V19.8466V27.1264Z" fill="black" stroke="white"/>
<path d="M182.252 25.3156V29.0822L182.252 29.1815C182.252 32.4257 182.252 34.2902 182.414 35.3466C182.474 35.7377 182.563 36.0765 182.719 36.3478C182.339 36.34 181.929 36.3329 181.504 36.3329C181.051 36.3329 180.645 36.3393 180.283 36.3468C180.429 36.076 180.511 35.7404 180.567 35.3513C180.719 34.2971 180.719 32.4431 180.719 29.2117L180.719 29.1184V25.3156L180.719 25.2214C180.719 22.1899 180.719 20.4349 180.572 19.4342C180.518 19.0673 180.437 18.7459 180.295 18.4854C180.649 18.4929 181.041 18.4996 181.467 18.4996C181.872 18.4996 182.284 18.492 182.665 18.4838C182.526 18.745 182.447 19.0676 182.395 19.4365C182.252 20.4361 182.252 22.1902 182.252 25.2241L182.252 25.3156Z" fill="black" stroke="white"/>
<mask id="path-7-outside-1" maskUnits="userSpaceOnUse" x="40.298" y="0.710632" width="18" height="18" fill="black">
<rect fill="white" x="40.298" y="0.710632" width="18" height="18"/>
<path fill-rule="evenodd" clip-rule="evenodd" d="M49.074 4.71063C46.451 4.71063 44.298 6.82805 44.298 9.42823C44.298 12.0284 46.451 14.1458 49.074 14.1458C51.697 14.1458 53.85 12.0284 53.85 9.42823C53.85 6.82805 51.697 4.71063 49.074 4.71063ZM49.074 12.5337C47.3291 12.5337 45.9218 11.138 45.9218 9.42823C45.9218 7.71849 47.3291 6.32277 49.074 6.32277C50.8189 6.32277 52.2262 7.71849 52.2262 9.42823C52.2262 11.138 50.8189 12.5337 49.074 12.5337ZM49.074 5.08209C46.6515 5.08209 44.6694 7.03785 44.6694 9.42823C44.6694 10.7939 45.3163 12.0176 46.3227 12.8159C45.3164 12.0176 44.6695 10.7939 44.6695 9.42831C44.6695 7.03793 46.6516 5.08216 49.0741 5.08216C50.1032 5.08216 51.0527 5.43508 51.8047 6.02432C51.0527 5.43504 50.1031 5.08209 49.074 5.08209ZM46.8699 12.1407C47.4735 12.619 48.2401 12.9052 49.0741 12.9052C51.0194 12.9052 52.5977 11.3479 52.5977 9.42831C52.5977 8.32417 52.0755 7.33987 51.2616 6.70286C52.0755 7.33987 52.5976 8.32414 52.5976 9.42823C52.5976 11.3478 51.0193 12.9052 49.074 12.9052C48.24 12.9052 47.4735 12.6189 46.8699 12.1407Z"/>
</mask>
<path fill-rule="evenodd" clip-rule="evenodd" d="M49.074 4.71063C46.451 4.71063 44.298 6.82805 44.298 9.42823C44.298 12.0284 46.451 14.1458 49.074 14.1458C51.697 14.1458 53.85 12.0284 53.85 9.42823C53.85 6.82805 51.697 4.71063 49.074 4.71063ZM49.074 12.5337C47.3291 12.5337 45.9218 11.138 45.9218 9.42823C45.9218 7.71849 47.3291 6.32277 49.074 6.32277C50.8189 6.32277 52.2262 7.71849 52.2262 9.42823C52.2262 11.138 50.8189 12.5337 49.074 12.5337ZM49.074 5.08209C46.6515 5.08209 44.6694 7.03785 44.6694 9.42823C44.6694 10.7939 45.3163 12.0176 46.3227 12.8159C45.3164 12.0176 44.6695 10.7939 44.6695 9.42831C44.6695 7.03793 46.6516 5.08216 49.0741 5.08216C50.1032 5.08216 51.0527 5.43508 51.8047 6.02432C51.0527 5.43504 50.1031 5.08209 49.074 5.08209ZM46.8699 12.1407C47.4735 12.619 48.2401 12.9052 49.0741 12.9052C51.0194 12.9052 52.5977 11.3479 52.5977 9.42831C52.5977 8.32417 52.0755 7.33987 51.2616 6.70286C52.0755 7.33987 52.5976 8.32414 52.5976 9.42823C52.5976 11.3478 51.0193 12.9052 49.074 12.9052C48.24 12.9052 47.4735 12.6189 46.8699 12.1407Z" fill="#D7A84E"/>
<path d="M46.3227 12.8159L43.8369 15.9497L48.8086 9.68219L46.3227 12.8159ZM51.8047 6.02432L49.3375 9.17278L54.272 2.87593L51.8047 6.02432ZM46.8699 12.1407L49.354 9.0055L44.3857 15.2757L46.8699 12.1407ZM51.2616 6.70286L53.727 3.55295L48.7962 9.85267L51.2616 6.70286ZM48.298 9.42823C48.298 9.08853 48.6085 8.71063 49.074 8.71063V0.710632C44.2936 0.710632 40.298 4.56756 40.298 9.42823H48.298ZM49.074 10.1458C48.6085 10.1458 48.298 9.76793 48.298 9.42823H40.298C40.298 14.2889 44.2936 18.1458 49.074 18.1458V10.1458ZM49.85 9.42823C49.85 9.76793 49.5395 10.1458 49.074 10.1458V18.1458C53.8544 18.1458 57.85 14.2889 57.85 9.42823H49.85ZM49.074 8.71063C49.5395 8.71063 49.85 9.08853 49.85 9.42823H57.85C57.85 4.56756 53.8544 0.710632 49.074 0.710632V8.71063ZM41.9218 9.42823C41.9218 13.3955 45.1687 16.5337 49.074 16.5337V8.5337C49.4896 8.5337 49.9218 8.88046 49.9218 9.42823H41.9218ZM49.074 2.32277C45.1687 2.32277 41.9218 5.46098 41.9218 9.42823H49.9218C49.9218 9.97601 49.4896 10.3228 49.074 10.3228V2.32277ZM56.2262 9.42823C56.2262 5.46098 52.9793 2.32277 49.074 2.32277V10.3228C48.6584 10.3228 48.2262 9.97601 48.2262 9.42823H56.2262ZM49.074 16.5337C52.9793 16.5337 56.2262 13.3955 56.2262 9.42823H48.2262C48.2262 8.88046 48.6584 8.5337 49.074 8.5337V16.5337ZM48.6694 9.42823C48.6694 9.36322 48.6923 9.28539 48.7728 9.20601C48.854 9.12589 48.9577 9.08209 49.074 9.08209V1.08209C44.4929 1.08209 40.6694 4.77855 40.6694 9.42823H48.6694ZM48.8085 9.68212C48.7562 9.64064 48.7197 9.59272 48.6981 9.54942C48.6786 9.51036 48.6694 9.47248 48.6694 9.42823H40.6694C40.6694 12.0884 41.9331 14.4396 43.8369 15.9497L48.8085 9.68212ZM40.6695 9.42831C40.6695 12.0884 41.9332 14.4395 43.8368 15.9496L48.8086 9.68219C48.7563 9.64071 48.7198 9.59279 48.6982 9.54949C48.6787 9.51043 48.6695 9.47255 48.6695 9.42831H40.6695ZM49.0741 1.08216C44.493 1.08216 40.6695 4.77862 40.6695 9.42831H48.6695C48.6695 9.3633 48.6924 9.28546 48.7729 9.20608C48.8541 9.12596 48.9578 9.08216 49.0741 9.08216V1.08216ZM54.2719 2.87586C52.8429 1.75608 51.0314 1.08216 49.0741 1.08216V9.08216C49.1749 9.08216 49.2626 9.11409 49.3375 9.17278L54.2719 2.87586ZM49.074 9.08209C49.1748 9.08209 49.2625 9.11402 49.3374 9.17272L54.272 2.87593C52.843 1.75606 51.0314 1.08209 49.074 1.08209V9.08209ZM49.0741 8.90523C49.1697 8.90523 49.2729 8.94124 49.3541 9.00559L44.3857 15.2757C45.6742 16.2967 47.3105 16.9052 49.0741 16.9052V8.90523ZM48.5977 9.42831C48.5977 9.08855 48.8608 8.90523 49.0741 8.90523V16.9052C53.1781 16.9052 56.5977 13.6072 56.5977 9.42831H48.5977ZM48.7963 9.85276C48.6936 9.7724 48.5977 9.61894 48.5977 9.42831H56.5977C56.5977 7.0294 55.4575 4.90733 53.727 3.55295L48.7963 9.85276ZM56.5976 9.42823C56.5976 7.02943 55.4575 4.90742 53.7271 3.55304L48.7962 9.85267C48.6935 9.77232 48.5976 9.61886 48.5976 9.42823H56.5976ZM49.074 16.9052C53.178 16.9052 56.5976 13.6071 56.5976 9.42823H48.5976C48.5976 9.08847 48.8607 8.90515 49.074 8.90515V16.9052ZM44.3858 15.2758C45.6742 16.2967 47.3105 16.9052 49.074 16.9052V8.90515C49.1696 8.90515 49.2728 8.94116 49.354 9.0055L44.3858 15.2758Z" fill="white" mask="url(#path-7-outside-1)"/>
</svg>
