<svg width="174" height="33" viewBox="0 0 174 33" fill="none" xmlns="http://www.w3.org/2000/svg">
<g clip-path="url(#clip0)">
<path fill-rule="evenodd" clip-rule="evenodd" d="M16.2127 25.3055V21.7688C16.2127 15.9197 16.2127 15.2396 17.2195 15.1716V14.8655C16.664 14.8655 15.9002 14.8996 15.0323 14.8996C14.1297 14.8996 13.3659 14.8655 12.7757 14.8655V15.1716C13.8172 15.2396 13.8172 15.9538 13.8172 21.4628V22.653H3.57582V21.4628C3.57582 15.9197 3.57582 15.2056 4.61732 15.1376V14.8315C4.06185 14.8315 3.29808 14.8655 2.36073 14.8655C1.49282 14.8655 0.555467 14.8315 0.0694334 14.8315V15.1376C1.14565 15.2056 1.14565 15.9197 1.14565 21.7348V25.2715C1.14565 31.5287 1.14565 32.2088 0 32.2768V32.6169C0.52075 32.6169 1.4581 32.6169 2.36073 32.6169C3.26337 32.6169 4.02713 32.6509 4.68675 32.6509V32.3448C3.5411 32.2768 3.5411 31.5627 3.5411 25.7816V24.4894H13.7825V25.7816C13.7825 31.5627 13.7825 32.2768 12.6022 32.3448V32.6169C13.3312 32.6169 14.1644 32.5829 15.1018 32.5829C16.0044 32.5829 16.7682 32.6169 17.3931 32.6169V32.3108C16.2127 32.2768 16.2127 31.5627 16.2127 25.3055Z" fill="white"/>
<path fill-rule="evenodd" clip-rule="evenodd" d="M41.3129 30.4406C41.0698 30.2705 41.2434 29.4204 41.2434 29.0123C41.2781 28.0261 44.6457 19.0144 45.0275 16.702C45.2358 15.4437 45.1317 14.5596 44.2985 14.5596C43.3959 14.5596 41.5559 15.7158 40.4797 16.736C39.6117 17.5521 39.6812 17.5521 38.1884 19.0484L38.8133 19.7285C39.9589 18.6063 41.8336 16.804 42.2155 17.008C42.6321 17.2461 41.3476 20.8848 40.3408 24.2174C39.7506 26.2238 38.6397 30.5766 38.6397 30.5766C38.605 31.9028 38.8133 32.4809 39.8548 32.617C41.2781 32.787 42.3196 31.2567 45.7566 28.0941L44.854 27.55C43.6042 29.1483 41.5559 30.6106 41.3129 30.4406Z" fill="white"/>
<path fill-rule="evenodd" clip-rule="evenodd" d="M78.425 28.2302L73.6341 23.3333L78.2167 18.6064C80.7857 15.9879 81.3759 15.2398 82.2091 15.1718V14.8657C81.5842 14.8997 80.8204 14.8997 80.0219 14.8997C79.2582 14.8997 78.5986 14.8997 77.6959 14.8657V15.1378C78.5291 15.2398 78.1473 15.8519 75.6129 18.4364L71.4122 22.9252H71.3775V21.3949C71.3775 16.09 71.4122 15.3418 72.419 15.1718V14.8657C71.7247 14.8657 71.0651 14.8997 70.1624 14.8997C69.1903 14.8997 68.4613 14.8657 67.8711 14.8657V15.1718C68.9473 15.3418 68.9473 16.09 68.9473 21.769V25.3057C68.9473 31.5629 68.9473 32.141 67.8364 32.311V32.6171C68.3919 32.6171 69.2945 32.583 70.2318 32.583C71.0998 32.583 71.7594 32.6171 72.4884 32.6171V32.311C71.3428 32.141 71.3428 31.5629 71.3428 25.7478V24.0474H71.3775L75.4741 28.3323C78.4597 31.4948 79.1887 32.243 78.182 32.345V32.6171C79.0846 32.583 79.8484 32.583 80.751 32.583C81.6884 32.583 82.4868 32.583 83.1117 32.6171V32.311C82.348 32.209 81.6883 31.5969 78.425 28.2302Z" fill="white"/>
<path fill-rule="evenodd" clip-rule="evenodd" d="M114.496 25.3056L109.705 14.5596H109.323L104.358 25.2716C101.373 31.5968 101.026 32.2769 100.227 32.3449V32.617C100.678 32.617 101.373 32.617 102.345 32.617C103.143 32.617 103.942 32.617 104.601 32.651V32.3449C103.525 32.2769 103.803 31.5968 105.678 27.584H112.933C114.704 31.5968 115.016 32.2769 113.94 32.3449V32.617C114.6 32.583 115.502 32.583 116.405 32.583C117.377 32.583 118.037 32.583 118.488 32.617V32.3109C117.655 32.2769 117.308 31.5628 114.496 25.3056ZM112.17 25.8497H106.407L106.441 25.7817C108.837 20.3066 109.115 19.6605 109.358 19.0484H109.392C109.601 19.6945 109.844 20.3066 112.17 25.7817V25.8497Z" fill="white"/>
<path fill-rule="evenodd" clip-rule="evenodd" d="M148.726 30.7125C144.942 26.2237 144.352 25.5436 143.797 24.8294V24.7954C144.387 24.6254 145.046 24.3533 145.636 23.9793C146.713 23.2991 148.032 21.9389 148.032 19.7625C148.032 17.144 146.227 15.7837 144.699 15.3076C143.692 14.9676 142.443 14.8315 141.123 14.8315C140.464 14.8315 139.387 14.8655 138.693 14.8996C137.895 14.8996 137.339 14.9336 136.645 14.9336V15.2056C137.721 15.2396 137.721 15.9538 137.721 21.8029V25.3395C137.721 31.5967 137.721 32.2768 136.645 32.3448V32.6169C137.304 32.6169 137.999 32.5829 138.901 32.5829C139.735 32.5829 140.464 32.6169 141.054 32.6169V32.3108C140.047 32.2428 140.047 31.5287 140.047 26.0877V25.1355H141.332C143.692 28.026 145.428 30.2364 147.025 32.2768C147.268 32.4809 147.615 32.5829 147.963 32.5829C148.414 32.5829 148.657 32.5489 149.108 32.5489C149.768 32.5489 150.289 32.5829 150.844 32.5829V32.2768C150.254 32.2768 149.421 31.5287 148.726 30.7125ZM141.054 23.5032C140.637 23.5032 140.325 23.5032 140.047 23.4692V16.6339C140.29 16.5999 140.915 16.5999 141.401 16.5999C144.005 16.5999 145.532 17.8581 145.532 19.8645V19.8985C145.532 21.5308 144.56 22.483 143.553 22.9931C142.894 23.2991 141.991 23.5032 141.054 23.5032Z" fill="white"/>
<path fill-rule="evenodd" clip-rule="evenodd" d="M172.854 25.3057V21.769C172.854 15.9199 172.854 15.2738 173.896 15.1718V14.8657C173.34 14.8657 172.472 14.8997 171.639 14.8997C170.702 14.8997 169.938 14.8657 169.383 14.8657V15.1718C170.459 15.2738 170.459 15.9199 170.459 21.769V25.3397C170.459 31.5629 170.459 32.209 169.348 32.345V32.6171C169.903 32.6171 170.667 32.583 171.674 32.583C172.577 32.583 173.41 32.6171 174.035 32.6171V32.311C172.854 32.209 172.854 31.5629 172.854 25.3057Z" fill="white"/>
<path fill-rule="evenodd" clip-rule="evenodd" d="M46.4162 0.650879C44.1249 0.650879 42.2502 2.48722 42.2502 4.73164C42.2502 6.97607 44.1249 8.81241 46.4162 8.81241C48.7075 8.81241 50.5822 6.97607 50.5822 4.73164C50.5822 2.48722 48.7075 0.650879 46.4162 0.650879ZM46.4162 7.99626C44.5762 7.99626 43.0834 6.53398 43.0834 4.73164C43.0834 2.92931 44.5762 1.46703 46.4162 1.46703C48.2562 1.46703 49.749 2.92931 49.749 4.73164C49.749 6.53398 48.2562 7.99626 46.4162 7.99626Z" fill="white"/>
</g>
<defs>
<clipPath id="clip0">
<rect y="0.650879" width="174" height="32" fill="white"/>
</clipPath>
</defs>
</svg>
