<svg width="20" height="20" viewBox="0 0 20 20" fill="none" xmlns="http://www.w3.org/2000/svg">
<path d="M18.2422 2.50488H1.75782C1.48723 2.50488 1.23391 2.56808 1.00473 2.67225L9.96094 11.1806L11.9683 9.34793C11.9683 9.34793 11.9685 9.34774 11.9685 9.34767C11.9686 9.34759 11.9687 9.34752 11.9687 9.34752L18.9955 2.67239C18.7663 2.56815 18.5128 2.50488 18.2422 2.50488Z" fill="#E7C074"/>
<path d="M19.8241 3.45947L13.2114 9.74113L19.8238 16.0229C19.9335 15.8052 20 15.5645 20 15.3075V4.17464C20 3.91774 19.9336 3.67712 19.8241 3.45947Z" fill="#E7C074"/>
<path d="M0.176172 3.45898C0.0665234 3.67671 0 3.91736 0 4.17442V15.3072C0 15.5641 0.0664453 15.8048 0.176016 16.0225L6.78863 9.74082L0.176172 3.45898Z" fill="#E7C074"/>
<path d="M12.3829 10.5284L10.3752 12.3613C10.2608 12.4701 10.1109 12.5244 9.96098 12.5244C9.8111 12.5244 9.66114 12.4701 9.54672 12.3613L7.61719 10.5283L1.00446 16.81C1.23367 16.9143 1.48715 16.9775 1.75782 16.9775H18.2422C18.5128 16.9775 18.7661 16.9143 18.9953 16.8102L12.3829 10.5284Z" fill="#E7C074"/>
</svg>
