<svg width="20" height="20" viewBox="0 0 20 20" fill="none" xmlns="http://www.w3.org/2000/svg">
<g clip-path="url(#clip0)">
<path d="M18.3952 12.7125C17.1707 12.7125 15.9684 12.5306 14.8291 12.1729C14.2708 11.992 13.5845 12.158 13.2438 12.4904L10.995 14.1031C8.38703 12.7806 6.78057 11.255 5.40745 8.79601L7.0551 6.71531C7.48318 6.30919 7.63672 5.71593 7.45276 5.15929C7.07464 4.07124 6.88255 2.92961 6.88255 1.76586C6.8826 0.925161 6.16266 0.241211 5.27776 0.241211H1.60484C0.719948 0.241211 0 0.925161 0 1.76581C0 11.4019 8.25198 19.2412 18.3952 19.2412C19.2801 19.2412 20.0001 18.5573 20.0001 17.7166V14.2371C20 13.3965 19.2801 12.7125 18.3952 12.7125Z" fill="#E7C074"/>
</g>
<defs>
<clipPath id="clip0">
<rect y="0.241211" width="20" height="19" fill="white"/>
</clipPath>
</defs>
</svg>
