<svg width="200" height="36" viewBox="0 0 200 36" fill="none" xmlns="http://www.w3.org/2000/svg">
<g clip-path="url(#clip0)">
<path d="M109.348 19.0883C106.091 19.0883 103.116 17.8062 101.416 16.0968C99.0085 13.6752 98.5835 10.3988 100.142 7.40738C102.125 3.56122 105.241 2.99142 107.507 3.56122C109.773 4.13102 111.19 5.98288 111.048 8.11963C110.906 9.40168 110.482 10.3988 109.632 11.1111C108.215 12.1082 106.374 11.8233 106.374 11.8233C105.949 11.6809 105.666 11.396 105.807 10.9686C105.949 10.5413 106.232 10.2564 106.657 10.3988C106.657 10.3988 107.932 10.5413 108.782 9.97148C109.207 9.54413 109.49 8.97433 109.632 8.11963C109.773 6.83758 108.782 5.55553 107.224 5.12818C105.524 4.70082 103.116 5.27063 101.7 8.11963C100.425 10.5413 100.85 13.1054 102.833 15.0997C105.241 17.5213 110.198 18.9458 115.439 16.2393C116.997 15.3846 118.838 14.245 120.822 13.1054C127.762 8.83188 136.544 3.41877 143.768 5.84043C147.167 6.98003 149.292 9.11678 149.575 11.8233C149.717 13.8176 148.584 15.8119 146.884 16.8091C145.042 17.8062 142.918 17.3789 141.076 15.8119C140.793 15.527 140.652 15.0997 140.935 14.8148C141.218 14.5299 141.643 14.3874 141.926 14.6723C143.201 15.8119 144.759 16.0968 146.034 15.3846C147.309 14.8148 148.017 13.3903 147.875 11.9658C147.592 9.82903 145.892 8.11963 143.059 7.12248C136.402 4.84327 128.045 10.1139 121.388 14.245C119.405 15.527 117.564 16.6666 115.864 17.5213C113.598 18.6609 111.473 19.0883 109.348 19.0883Z" fill="#E7C074"/>
<path d="M121.105 14.245C120.822 14.245 120.538 14.1026 120.397 13.8177C120.255 13.3903 120.397 12.963 120.68 12.8205C120.68 12.8205 123.796 11.1111 124.363 8.68946C124.646 7.69231 124.363 6.69516 123.654 5.69801C122.946 4.55841 121.105 4.55841 119.972 5.12821C119.405 5.41311 118.13 6.26781 118.697 7.97721C118.839 8.40456 118.555 8.83191 118.272 8.97436C117.989 9.11681 117.564 8.83191 117.422 8.54701C116.855 6.55271 117.564 4.84331 119.405 3.84616C121.105 2.99146 123.796 3.13391 124.929 4.84331C125.921 6.26781 126.204 7.69231 125.921 9.11681C125.212 12.2507 121.53 14.1026 121.388 14.245C121.388 14.245 121.246 14.245 121.105 14.245Z" fill="#E7C074"/>
<path d="M117.564 7.97717C117.564 7.12247 118.272 6.41022 119.122 6.41022C119.972 6.41022 120.68 7.12247 120.68 7.97717C120.68 8.83187 119.972 9.54412 119.122 9.54412C118.272 9.54412 117.564 8.83187 117.564 7.97717Z" fill="#E7C074"/>
<path d="M105.241 9.97149C105.241 9.11679 105.949 8.40454 106.799 8.40454C107.649 8.40454 108.357 9.11679 108.357 9.97149C108.357 10.8262 107.649 11.5384 106.799 11.5384C105.949 11.5384 105.241 10.8262 105.241 9.97149Z" fill="#E7C074"/>
<path d="M142.068 15.9544C142.928 15.9544 143.626 15.2529 143.626 14.3874C143.626 13.522 142.928 12.8205 142.068 12.8205C141.207 12.8205 140.51 13.522 140.51 14.3874C140.51 15.2529 141.207 15.9544 142.068 15.9544Z" fill="#E7C074"/>
<path d="M90.5099 19.0883C88.5269 19.0883 86.2606 18.6609 84.136 17.5213C82.5779 16.6666 80.5949 15.527 78.6119 14.245C71.9547 10.1139 63.5977 4.98572 56.7988 7.12247C53.966 8.11962 52.2663 9.68657 52.1246 11.6809C51.983 13.1054 52.8328 14.5299 53.966 15.0997C55.2408 15.8119 56.6572 15.527 58.0736 14.3874C58.3569 14.1025 58.9235 14.1025 59.0651 14.5299C59.3484 14.8148 59.3484 15.3846 58.9235 15.527C57.0821 17.094 54.9575 17.3789 53.1161 16.5242C51.2748 15.6695 50.2833 13.6752 50.4249 11.5384C50.5666 8.97432 52.6912 6.83757 56.2323 5.55552C63.7394 3.27632 72.5212 8.68942 79.4617 12.9629C81.4447 14.245 83.2861 15.3846 84.8442 16.0968C90.085 18.8034 95.0425 17.3789 97.4504 14.9572C99.4334 12.9629 99.7167 10.3988 98.5835 7.97717C97.0255 4.98572 94.7592 4.41592 93.0595 4.98572C91.5014 5.41307 90.5099 6.69512 90.6515 7.97717C90.6515 8.83187 90.9348 9.40167 91.5014 9.82902C92.3512 10.5413 93.626 10.2564 93.626 10.2564C94.051 10.1139 94.4759 10.3988 94.4759 10.8262C94.6175 11.2535 94.3343 11.6809 93.9093 11.6809C93.7677 11.6809 92.068 11.9658 90.6515 10.9686C89.8017 10.2564 89.3767 9.40167 89.2351 7.97717C89.0935 5.98287 90.5099 4.13102 92.7762 3.41877C94.9008 2.84897 98.1586 3.41877 100.142 7.26492C101.7 10.2564 101.275 13.5327 98.8668 15.9544C96.7422 17.8062 93.9093 19.0883 90.5099 19.0883Z" fill="#E7C074"/>
<path d="M78.7535 14.245C78.6119 14.245 78.4703 14.245 78.4703 14.1026C78.3286 13.9601 74.6459 12.1083 73.9377 8.97436C73.6544 7.54986 73.9377 6.12535 74.9292 4.70085C76.204 2.99145 78.7535 2.849 80.4532 3.7037C82.2946 4.70085 83.1445 6.41026 82.4363 8.40456C82.2946 8.83191 81.8697 8.97436 81.4448 8.83191C81.0198 8.68946 80.8782 8.26211 81.0198 7.83476C81.5864 6.12535 80.3116 5.27065 79.745 4.98575C78.6119 4.41595 76.7705 4.41595 76.0623 5.55555C75.3541 6.55271 75.0708 7.54986 75.3541 8.54701C76.0623 11.1111 79.1785 12.8205 79.1785 12.8205C79.6034 12.963 79.745 13.5328 79.4617 13.8177C79.3201 14.1026 79.0368 14.245 78.7535 14.245Z" fill="#E7C074"/>
<path d="M82.4362 7.97723C82.4362 7.12253 81.728 6.41028 80.8781 6.41028C80.0283 6.41028 79.3201 7.12253 79.3201 7.97723C79.3201 8.83193 80.0283 9.54418 80.8781 9.54418C81.728 9.54418 82.4362 8.83193 82.4362 7.97723Z" fill="#E7C074"/>
<path d="M94.7592 9.97149C94.7592 9.11679 94.051 8.40454 93.2012 8.40454C92.3513 8.40454 91.6431 9.11679 91.6431 9.97149C91.6431 10.8262 92.3513 11.5384 93.2012 11.5384C94.051 11.5384 94.7592 10.8262 94.7592 9.97149Z" fill="#E7C074"/>
<path d="M59.49 14.3874C59.49 13.5327 58.7818 12.8205 57.932 12.8205C57.0821 12.8205 56.3739 13.5327 56.3739 14.3874C56.3739 15.2421 57.0821 15.9544 57.932 15.9544C58.7818 15.9544 59.49 15.2421 59.49 14.3874Z" fill="#E7C074"/>
<path d="M99.8583 35.0428C99.7167 35.0428 99.575 35.0428 99.4334 34.9003C96.8838 32.6211 95.3257 29.3448 95.3257 25.926C95.3257 22.5071 96.8838 19.2308 99.4334 16.9516C99.7167 16.6667 100.142 16.6667 100.425 16.9516C102.974 19.2308 104.533 22.5071 104.533 25.926C104.533 29.3448 102.974 32.6211 100.425 34.9003C100.283 34.9003 100.142 35.0428 99.8583 35.0428ZM99.8583 18.5185C97.8753 20.5128 96.7422 23.0769 96.7422 25.926C96.7422 28.775 97.8753 31.3391 99.8583 33.3334C101.841 31.3391 102.974 28.775 102.974 25.926C102.974 23.0769 101.841 20.5128 99.8583 18.5185Z" fill="#E7C074"/>
<path d="M87.9603 30.6268C87.677 30.6268 87.3937 30.4844 87.2521 30.057C86.5439 27.7778 86.8272 25.3561 88.1019 23.3618C89.3767 21.3675 91.3597 19.943 93.7677 19.6581C94.1926 19.6581 94.4759 19.8006 94.6175 20.2279C95.3257 22.5071 95.0424 24.9288 93.7677 26.9231C92.3512 28.9174 90.3682 30.1995 87.9603 30.6268ZM93.2011 21.2251C91.643 21.6524 90.2266 22.6496 89.2351 24.0741C88.3852 25.4986 88.1019 27.208 88.3852 28.9174C89.9433 28.4901 91.3597 27.4929 92.3512 26.0684C93.2011 24.6439 93.4844 22.9345 93.2011 21.2251Z" fill="#E7C074"/>
<path d="M111.898 30.6268C111.756 30.6268 111.756 30.6268 111.898 30.6268C109.49 30.1995 107.365 28.9174 106.232 26.9231C104.957 24.9288 104.674 22.5071 105.382 20.2279C105.524 19.943 105.807 19.6581 106.232 19.6581C108.499 19.943 110.623 21.3675 111.898 23.3618C113.173 25.3561 113.456 27.7778 112.748 30.057C112.465 30.3419 112.181 30.6268 111.898 30.6268ZM106.516 21.2251C106.232 22.9345 106.516 24.6439 107.365 26.0684C108.215 27.4929 109.632 28.4901 111.331 28.9174C111.615 27.208 111.331 25.4986 110.482 24.0741C109.632 22.6496 108.215 21.6524 106.516 21.2251Z" fill="#E7C074"/>
<path d="M197.592 3.27636H2.40792C1.98299 3.27636 1.69971 2.84901 1.69971 2.42166C1.69971 1.99431 1.98299 1.70941 2.40792 1.70941H197.45C197.875 1.70941 198.159 1.99431 198.159 2.42166C198.3 2.84901 197.875 3.27636 197.592 3.27636Z" fill="#E7C074"/>
<path d="M4.81586 2.42165C4.81586 3.84615 3.68272 4.84331 2.40793 4.84331C1.13314 4.84331 0 3.84615 0 2.42165C0 1.1396 1.13314 0 2.40793 0C3.82436 0 4.81586 1.1396 4.81586 2.42165Z" fill="#E7C074"/>
<path d="M200 2.42165C200 3.84615 198.867 4.84331 197.592 4.84331C196.176 4.84331 195.184 3.7037 195.184 2.42165C195.184 0.997151 196.317 0 197.592 0C198.867 0 200 1.1396 200 2.42165Z" fill="#E7C074"/>
</g>
<defs>
<clipPath id="clip0">
<rect width="200" height="35.0427" fill="white"/>
</clipPath>
</defs>
</svg>
