<svg width="23" height="23" viewBox="0 0 23 23" fill="none" xmlns="http://www.w3.org/2000/svg">
<g clip-path="url(#clip0)">
<path d="M11.4746 0.405762C5.40041 0.405762 0.474609 5.33156 0.474609 11.4058C0.474609 17.48 5.40041 22.4058 11.4746 22.4058C17.5488 22.4058 22.4746 17.48 22.4746 11.4058C22.4746 5.33156 17.5488 0.405762 11.4746 0.405762ZM11.7077 17.8103C11.7076 17.8103 11.7079 17.8103 11.7077 17.8103H11.7051C10.6031 17.8098 9.52037 17.5335 8.55878 17.0092L5.06874 17.9244L6.00281 14.5138C5.42659 13.5158 5.12346 12.3835 5.12396 11.2235C5.12547 7.59464 8.0789 4.64238 11.7077 4.64238C13.4688 4.64305 15.1219 5.32854 16.3648 6.57245C17.6079 7.81653 18.292 9.47015 18.2914 11.2287C18.2899 14.8577 15.3361 17.8103 11.7077 17.8103Z" fill="#D7A84E"/>
<path d="M11.71 5.75391C8.69158 5.75391 6.23682 8.20766 6.23547 11.2239C6.23514 12.2575 6.52451 13.264 7.07219 14.135L7.20227 14.3419L6.64938 16.3606L8.72045 15.8175L8.92035 15.936C9.76043 16.4345 10.7235 16.6982 11.7054 16.6985H11.7076C14.7237 16.6985 17.1784 14.2446 17.1798 11.2282C17.1803 9.76645 16.6116 8.39212 15.5785 7.35818C14.5454 6.32425 13.1714 5.75441 11.71 5.75391ZM14.9286 13.5757C14.7915 13.9598 14.1343 14.3104 13.8183 14.3577C13.5348 14.4 13.1763 14.4176 12.7822 14.2926C12.5432 14.2167 12.2368 14.1155 11.8442 13.9462C10.1941 13.2338 9.1164 11.5728 9.03415 11.463C8.95191 11.3533 8.36243 10.5713 8.36243 9.76175C8.36243 8.95239 8.78742 8.55443 8.93815 8.38994C9.08904 8.22528 9.26729 8.18416 9.3769 8.18416C9.4865 8.18416 9.59627 8.18517 9.69211 8.18987C9.79316 8.1949 9.92878 8.15143 10.0622 8.47218C10.1993 8.8015 10.5283 9.61086 10.5694 9.6931C10.6106 9.77551 10.6379 9.87152 10.5832 9.98129C10.5283 10.0911 10.346 10.3279 10.172 10.5437C10.099 10.6342 10.0038 10.7148 10.0998 10.8794C10.1957 11.0439 10.526 11.5826 11.0149 12.0186C11.6433 12.5789 12.1734 12.7524 12.3379 12.8349C12.5022 12.9171 12.5982 12.9033 12.6942 12.7937C12.7901 12.684 13.1054 12.3135 13.2151 12.1489C13.3247 11.9842 13.4344 12.0117 13.5852 12.0666C13.736 12.1213 14.5447 12.5193 14.7092 12.6015C14.8737 12.684 14.9833 12.7251 15.0244 12.7937C15.0657 12.8624 15.0657 13.1915 14.9286 13.5757Z" fill="#D7A84E"/>
</g>
<defs>
<clipPath id="clip0">
<rect x="0.474609" y="0.405762" width="22" height="22" fill="white"/>
</clipPath>
</defs>
</svg>
