<svg width="23" height="23" viewBox="0 0 23 23" fill="none" xmlns="http://www.w3.org/2000/svg">
<g clip-path="url(#clip0)">
<path d="M11.663 0.905289C5.58876 0.905289 0.662964 5.83109 0.662964 11.9053C0.662964 17.9795 5.58876 22.9053 11.663 22.9053C17.7372 22.9053 22.663 17.9795 22.663 11.9053C22.663 5.83109 17.7372 0.905289 11.663 0.905289ZM11.8961 18.3098C11.8959 18.3098 11.8963 18.3098 11.8961 18.3098H11.8934C10.7915 18.3093 9.70872 18.033 8.74713 17.5087L5.2571 18.424L6.19116 15.0133C5.61494 14.0153 5.31181 12.883 5.31232 11.723C5.31383 8.09416 8.26726 5.14191 11.8961 5.14191C13.6572 5.14258 15.3103 5.82806 16.5532 7.07198C17.7962 8.31606 18.4804 9.96968 18.4797 11.7282C18.4782 15.3572 15.5244 18.3098 11.8961 18.3098Z" fill="#D7A84E"/>
<path d="M11.8983 6.25356C8.87987 6.25356 6.42511 8.70731 6.42377 11.7235C6.42343 12.7571 6.7128 13.7637 7.26048 14.6346L7.39057 14.8416L6.83768 16.8603L8.90874 16.3171L9.10865 16.4356C9.94872 16.9341 10.9118 17.1978 11.8937 17.1982H11.8959C14.912 17.1982 17.3667 14.7442 17.3681 11.7279C17.3686 10.2661 16.7999 8.89177 15.7668 7.85783C14.7337 6.8239 13.3597 6.25406 11.8983 6.25356ZM15.1169 14.0754C14.9798 14.4594 14.3226 14.81 14.0066 14.8574C13.7231 14.8997 13.3646 14.9173 12.9705 14.7923C12.7315 14.7164 12.4251 14.6152 12.0325 14.4458C10.3824 13.7335 9.30469 12.0725 9.22245 11.9627C9.1402 11.8529 8.55072 11.0709 8.55072 10.2614C8.55072 9.45204 8.97571 9.05408 9.12644 8.88959C9.27733 8.72493 9.45559 8.68381 9.56519 8.68381C9.67479 8.68381 9.78457 8.68481 9.88041 8.68951C9.98145 8.69455 10.1171 8.65108 10.2505 8.97183C10.3876 9.30115 10.7166 10.1105 10.7577 10.1927C10.7989 10.2752 10.8262 10.3712 10.7715 10.4809C10.7166 10.5907 10.5343 10.8275 10.3603 11.0434C10.2873 11.1339 10.1921 11.2144 10.2881 11.3791C10.3839 11.5436 10.7143 12.0822 11.2032 12.5183C11.8316 13.0785 12.3617 13.2521 12.5262 13.3345C12.6905 13.4167 12.7865 13.403 12.8825 13.2934C12.9784 13.1836 13.2937 12.8132 13.4033 12.6485C13.5129 12.4839 13.6227 12.5114 13.7734 12.5663C13.9243 12.621 14.733 13.019 14.8975 13.1012C15.062 13.1836 15.1716 13.2247 15.2127 13.2934C15.254 13.362 15.254 13.6912 15.1169 14.0754Z" fill="#D7A84E"/>
</g>
<defs>
<clipPath id="clip0">
<rect x="0.662964" y="0.905289" width="22" height="22" fill="white"/>
</clipPath>
</defs>
</svg>
